<?xml version="1.0" encoding="UTF-8"?>
<svg version="1.1" viewBox="0 0 1600 1600" width="1280" height="1280" xmlns="http://www.w3.org/2000/svg">
<path transform="translate(798 313)" d="m0 0 3.99-0.00305c20.1 0.00149 39.7 0.616 59.6 3.25 1.13 0.139 2.26 0.278 3.42 0.422 56.1 6.98 110 24.3 161 49.6 1.39 0.696 1.39 0.696 2.8 1.41 17.4 8.77 34.2 18.5 50.2 29.6 0.64 0.443 1.28 0.886 1.94 1.34 13.5 9.34 26.5 19.1 39.1 29.7 0.521 0.435 1.04 0.87 1.58 1.32 12.9 10.8 25.1 22.3 37 34.1 0.964 0.957 0.964 0.957 1.95 1.93 3.8 3.81 7.4 7.74 10.9 11.8 1.96 2.27 3.99 4.48 6.01 6.69 4.4 4.89 8.51 9.95 12.6 15.1 1.05 1.32 2.1 2.64 3.16 3.96 45.1 56.9 77.6 124 93.8 195 0.265 1.15 0.53 2.31 0.803 3.5 7.55 33.4 11.2 67.3 12.2 102 0.0234 0.786 0.0467 1.57 0.0708 2.38 1.44 56.4-8.29 113-26.1 167-0.385 1.16-0.771 2.32-1.17 3.52-13.9 41.6-33.9 81.4-58.8 117-0.453 0.66-0.906 1.32-1.37 2-11.2 16.2-23.1 31.7-36.2 46.4-1.27 1.43-2.52 2.86-3.77 4.29-5.79 6.56-12 12.7-18.2 18.9-3.16 3.13-6.3 6.28-9.41 9.46-5.89 6.01-11.9 11.7-18.5 16.9-2.53 2.05-4.9 4.19-7.28 6.41-39.7 36.1-115 88.8-171 90.4-7.2-0.498-12.7-2.49-17.9-7.69-4.46-6.71-6.13-12.2-6.11-20.2 0.00152-1.26 0.00303-2.52 0.00459-3.81 0.00673-1.39 0.0135-2.77 0.0204-4.16 0.00356-1.47 0.00664-2.93 0.00929-4.4 0.00655-3.16 0.0161-6.32 0.0279-9.48 0.0184-5.01 0.0279-10 0.0359-15 0.0241-14.3 0.0597-28.5 0.105-42.8 0.0247-7.87 0.042-15.7 0.0516-23.6 0.00542-4.16 0.0147-8.31 0.0334-12.5 0.178-40.5-2.87-75.9-29.8-108-0.779-0.932-1.56-1.86-2.36-2.82 1.16-0.175 2.31-0.351 3.5-0.531 57.6-8.8 116-21.7 159-63.5 0.528-0.497 1.06-0.994 1.6-1.51 48.1-45.4 60.4-113 62.4-176 0.191-8.05-0.164-16-0.952-24-0.0838-0.88-0.168-1.76-0.254-2.67-3.55-35.1-16-69.4-37.7-97.3-0.746-0.968-1.49-1.94-2.26-2.93-3.72-4.79-3.72-4.79-8.03-9.03-1.71-2.04-1.71-2.04-1.61-4.29 0.296-0.908 0.593-1.82 0.898-2.75 0.358-1.22 0.717-2.43 1.09-3.69 0.207-0.687 0.415-1.37 0.628-2.08 7.36-24.9 8.87-51.7 4.29-77.2-0.193-1.13-0.193-1.13-0.391-2.29-3.2-23.4-3.2-23.4-13.6-43.7-33.3-1.99-64.1 10.7-93 26-1.17 0.615-1.17 0.615-2.35 1.24-10.7 5.68-21 11.7-31.1 18.4-0.61 0.398-1.22 0.797-1.85 1.21-1.43 0.952-2.81 1.96-4.19 2.98-4.95 2.26-11-0.169-16.2-1.36-16.6-3.79-33-6.98-49.9-9.09-2.34-0.295-4.68-0.606-7.01-0.929-10.8-1.45-21.5-2.18-32.4-2.68-0.915-0.043-1.83-0.0859-2.77-0.13-45.1-2.06-90.9 2.11-135 13.5-0.926 0.24-1.85 0.48-2.81 0.727-0.792 0.213-1.58 0.426-2.4 0.646-3.52 0.701-6.26 1.04-9.44-0.759-0.735-0.568-1.47-1.14-2.23-1.72-37.8-27.8-84.4-48.9-132-48.1-0.717 2.39-1.43 4.78-2.15 7.17-0.53 1.76-1.06 3.53-1.6 5.29-2.97 9.81-5.64 19.6-7.57 29.7-0.159 0.827-0.318 1.65-0.482 2.51-4.87 26.7-3.18 54.8 4.71 80.7 0.358 1.21 0.717 2.41 1.09 3.65 0.298 0.896 0.596 1.79 0.902 2.71 0.0977 2.29 0.0977 2.29-1.5 4.44-0.813 0.773-1.63 1.55-2.46 2.34-33.7 34.4-47.4 86.6-46.9 134 1.56 63.2 14.7 126 59 173 0.798 0.864 1.6 1.73 2.42 2.62 11.3 11.8 24.5 21.4 38.7 29.3 1.26 0.706 2.52 1.42 3.77 2.15 37.2 21.5 80.9 29.8 123 34.9-0.866 0.99-1.73 1.98-2.62 3-14.2 16.7-23.2 35.6-27 57.3-0.554 2.98-0.989 5.21-3.02 7.51-3.41 1.69-6.91 2.95-10.5 4.12-1.18 0.388-1.18 0.388-2.39 0.784-29.5 9.44-58.6 10.3-87.1-2.94-2.21-1.16-4.3-2.42-6.39-3.78-0.822-0.527-1.64-1.05-2.49-1.6-13.7-9.32-23.9-21.3-32.6-35.2-5.17-8.21-10.4-16-16.9-23.2-0.735-0.83-1.47-1.66-2.23-2.52-14.3-15.2-35.3-27.7-56.5-28.8-1.69-0.0432-3.38-0.0757-5.07-0.0977-0.793-0.0141-1.59-0.0282-2.4-0.0427-6 0.0496-11.8 0.891-16.6 4.82-1.6 1.67-1.6 1.67-1.41 4.78 3.3 11.2 15.6 18.2 24.8 24.4 23.1 15.8 37.7 40.8 48.4 66.1 11.8 27.8 31.3 46.7 59.3 58.2 10.3 3.95 20.8 6.45 31.6 8.03 0.636 0.0935 1.27 0.187 1.93 0.283 7.41 0.965 14.9 1 22.3 1.03 0.714 0.00362 1.43 0.00723 2.16 0.011 14.1 0.0284 27.7-1.51 41.7-3.84 3.3-0.542 6.62-1.02 9.93-1.48 0.374 20 0.707 40 1 60 0.0165 1.09 0.033 2.18 0.05 3.3 0.0807 5.38 0.147 10.8 0.182 16.2 0.0118 1.52 0.0287 3.04 0.0513 4.56 0.152 10.7-0.589 19.8-8.28 28-7.21 5.45-15.3 5.67-24 5-8.92-2.16-17.5-5.58-26.1-8.94-1.2-0.472-2.4-0.945-3.63-1.43-42.6-17-82-39.7-118-67.6l-1.82-1.4c-18.1-13.9-34.9-29.3-51.1-45.4-1.41-1.39-2.82-2.78-4.22-4.17-5.28-5.27-10.2-10.7-14.8-16.6-2.17-2.66-4.46-5.16-6.81-7.65-6.62-7.21-12.4-15-18.2-22.9-0.819-1.1-0.819-1.1-1.65-2.22-8.36-11.2-16.1-22.8-23.3-34.8-0.789-1.29-0.789-1.29-1.59-2.61-43.1-70.8-67-151-71.7-233-0.0413-0.729-0.0826-1.46-0.125-2.21-0.915-16.7-0.819-33.3 0.125-49.9 0.0429-0.765 0.0858-1.53 0.13-2.32 5.15-89.4 34.1-178 85.1-252 0.474-0.687 0.949-1.37 1.44-2.08 9.3-13.4 19.1-26.4 29.6-38.9 0.43-0.516 0.859-1.03 1.3-1.56 8.51-10.2 17.5-19.9 26.7-29.4 0.546-0.569 1.09-1.14 1.65-1.73 5.98-6.21 5.98-6.21 8.35-8.27h2c0.33-0.99 0.66-1.98 1-3 1.32-1.37 1.32-1.37 3.12-2.88 0.723-0.612 1.45-1.22 2.19-1.86 0.886-0.749 1.77-1.5 2.68-2.27 1.12-0.973 2.23-1.95 3.34-2.93 70.8-62.2 158-104 286-123 1.03-0.0972 2.06-0.194 3.12-0.294 13.4-1.07 26.8-0.948 40.3-0.956z" fill="#000100"/>
<path transform="translate(587,1116)" d="m0 0c3.59 1.8 5.47 2.82 7.12 6.5-0.125 2.5-0.125 2.5-1.62 4.75-3.3 2.31-5.47 2.68-9.5 2.75-3.66-1.16-6.19-2.25-9-4.88-1-2.12-1-2.12-0.938-4.69 2.57-6.68 7.89-5.98 13.9-4.44z" fill="#000100"/>
<path transform="translate(629,1122)" d="m0 0c3.12 1.69 3.12 1.69 5 4 0.562 2.5 0.562 2.5 0 5-1.67 2.62-3.06 3.74-6.06 4.57-3.95 0.619-6.54 0.557-10.4-0.699-2.87-2.1-3.65-3.49-4.56-6.88 4.83-6.28 8.21-6.88 16-6z" fill="#000100"/>
<path transform="translate(663 1117)" d="m0 0c0.855-0.0168 1.71-0.0335 2.59-0.0508 2.97 0.437 4.33 1.29 6.47 3.36 0.562 2.94 0.562 2.94 0 6-3.54 3.54-6.39 4.85-11.4 5.31-4.23-0.365-5.7-1.3-8.62-4.31-0.33-0.99-0.66-1.98-1-3 3.31-4.84 5.99-7.29 11.9-7.31z" fill="#000100"/>
<path transform="translate(543,1093)" d="m0 0c5.29 0.199 8.26 1.26 12 5 2.13 2.77 3.04 4.12 2.88 7.62-0.972 2.64-1.47 3.89-3.88 5.38-4.38-0.19-7.56-1.29-11-4-1.87-2.32-2.79-4.19-4-7 0.733-3.3 1.62-4.62 4-7z" fill="#000100"/>
<path transform="translate(521 1065)" d="m0 0c3.68 0.513 5.1 1.72 7.69 4.38 2.03 3.6 3.19 5.75 2.56 9.88-1.56 2.12-1.56 2.12-4.38 3.19-3.19-0.0625-3.19-0.0625-5.88-1.62-2.57-2.71-4.02-4.92-5.31-8.44 0.274-4.01 0.969-6.67 5.31-7.38z" fill="#000100"/>
<path transform="translate(503 1039)" d="m0 0c2.44 0.75 2.44 0.75 4.44 1.75v2h2c2.15 3.22 2.38 4.27 2 8-2 2-2 2-4.75 2.5-3.99-0.614-5.47-1.9-8.11-4.84-1.14-1.66-1.14-1.66-1.7-4.34 0.927-3.81 2.04-5.46 6.12-5.06z" fill="#000100"/>
<path transform="translate(479,1022)" d="m0 0c4.88 0.332 7.41 1.73 11 5-1.88 3.88-1.88 3.88-3 5-4.02-0.227-6.32-0.427-9.44-3.06-0.516-0.639-1.03-1.28-1.56-1.94 1.88-3.88 1.88-3.88 3-5z" fill="#000100"/>
</svg>
